<svg width="32" height="32" viewBox="0 0 32 32" fill="none" xmlns="http://www.w3.org/2000/svg">
<path d="M20.3139 9.99951C20.5772 9.99951 20.7089 9.9994 20.892 10.0249C21.2599 10.0762 21.796 10.2941 22.0961 10.5132C22.2454 10.6222 22.3134 10.6869 22.4477 10.8169C25.6678 13.9339 27.8406 18.1086 28.5785 22.5269C28.9563 24.7887 28.0827 26.7735 26.5824 28.1597C25.0972 29.5319 22.9915 30.3335 20.7953 30.3335H11.2035C9.00732 30.3335 6.90165 29.532 5.41641 28.1597C3.91617 26.7735 3.04258 24.7886 3.42032 22.5269C4.31381 17.177 7.09283 13.196 9.517 10.8501C9.64021 10.7308 9.76396 10.6145 9.90274 10.5132C10.2027 10.2942 10.7389 10.0763 11.1068 10.0249C11.2899 9.9994 11.4219 9.99951 11.685 9.99951H20.3139ZM15.8832 14.7397C15.3311 14.74 14.8832 15.1876 14.8832 15.7397V15.8911C14.3658 16.0122 13.8881 16.2269 13.4867 16.5229C12.8366 17.0026 12.3334 17.7466 12.3334 18.6587C12.3334 19.4341 12.6142 20.1857 13.3539 20.6841C14.0091 21.1254 14.8914 21.2719 15.8832 21.272C16.7542 21.272 17.2089 21.406 17.4242 21.5464C17.5496 21.6281 17.6664 21.7478 17.6664 22.1538C17.6664 22.4498 17.5611 22.6067 17.3363 22.7417C17.0509 22.9131 16.5607 23.0356 15.8832 23.0356C15.1724 23.0355 14.62 22.8024 14.3295 22.5425C13.918 22.1742 13.2857 22.2092 12.9174 22.6206C12.5491 23.0321 12.584 23.6644 12.9955 24.0327C13.4971 24.4816 14.1581 24.7898 14.8832 24.937V25.0728C14.8832 25.6249 15.3311 26.0725 15.8832 26.0728C16.4355 26.0728 16.8832 25.625 16.8832 25.0728V24.9624C17.4109 24.8803 17.9232 24.7229 18.3666 24.4565C19.1489 23.9866 19.6664 23.2021 19.6664 22.1538C19.6664 21.2158 19.319 20.3948 18.517 19.8716C17.8048 19.4071 16.8672 19.272 15.8832 19.272C15.0205 19.2719 14.6274 19.1312 14.4711 19.0259C14.3994 18.9776 14.3334 18.9225 14.3334 18.6587C14.3334 18.5314 14.4012 18.3338 14.6742 18.1323C14.9469 17.9313 15.371 17.7769 15.8832 17.7769C16.5962 17.7769 17.1046 18.069 17.3139 18.3442C17.6481 18.7839 18.2756 18.8699 18.7152 18.5356C19.1549 18.2014 19.2399 17.5739 18.9057 17.1343C18.4298 16.5083 17.6998 16.0823 16.8832 15.8911V15.7397C16.8832 15.1875 16.4355 14.7397 15.8832 14.7397ZM15.9994 1.6665C16.8624 1.66653 17.4826 2.21207 17.8109 2.5415C18.2089 2.94082 18.5257 3.5379 19.0307 3.80518C19.4483 4.02607 19.9869 3.81119 20.4037 3.70264C20.801 3.59923 21.4067 3.44341 22.0482 3.52881C22.327 3.56592 22.6926 3.65448 22.976 3.90674C23.3116 4.2056 23.3659 4.57783 23.3168 4.85889C23.257 5.20059 23.0451 5.48082 22.8373 5.74756L21.6479 7.27979C21.3413 7.67559 21.0376 8.08216 20.6303 8.38135C20.3284 8.603 19.9462 8.6665 19.5717 8.6665H12.4272C12.0527 8.6665 11.6704 8.603 11.3686 8.38135C10.9612 8.08217 10.6576 7.6756 10.351 7.27979L9.16153 5.74756C8.95374 5.48081 8.74187 5.20059 8.68204 4.85889C8.63296 4.57783 8.6872 4.2056 9.02286 3.90674C9.30626 3.65451 9.67185 3.56591 9.95059 3.52881C10.5921 3.44344 11.1979 3.59923 11.5951 3.70264C12.0119 3.8112 12.5506 4.02605 12.9682 3.80518C13.4731 3.53788 13.79 2.94079 14.1879 2.5415C14.5162 2.21206 15.1365 1.6665 15.9994 1.6665Z" fill="#5F70F2"/>
</svg>
